<?xml version="1.0" encoding="utf-8"?>
<!-- Generator: Adobe Illustrator 15.1.0, SVG Export Plug-In . SVG Version: 6.00 Build 0)  -->
<!DOCTYPE svg PUBLIC "-//W3C//DTD SVG 1.1//EN" "http://www.w3.org/Graphics/SVG/1.1/DTD/svg11.dtd">
<svg version="1.1" xmlns="http://www.w3.org/2000/svg" xmlns:xlink="http://www.w3.org/1999/xlink" x="0px" y="0px" width="20px"
	 height="22px" viewBox="0 0 20 22" enable-background="new 0 0 20 22" xml:space="preserve">
<g id="Shape_1_1_" enable-background="new    ">
	<g id="Shape_1">
		<g>
			<path fill-rule="evenodd" clip-rule="evenodd" fill="#2A2B2D" d="M6.442,10.007c0.247,0.132,0.495,0.205,0.768,0.32
				c0.308,0.129,0.686,0.177,1.057,0.244c0.117,0.004,0.233,0.009,0.35,0.013c0.157,0.026,0.347,0.025,0.504,0
				c0.117-0.004,0.233-0.009,0.35-0.013c0.504-0.091,0.947-0.185,1.371-0.344c0.238-0.091,0.48-0.246,0.688-0.377
				c0.727-0.455,1.377-1.055,1.794-1.823c0.121-0.224,0.283-0.463,0.375-0.715c0.119-0.326,0.214-0.668,0.288-1.034
				c0.23-1.116-0.021-2.464-0.404-3.216c-0.122-0.236-0.221-0.449-0.351-0.67c-0.065-0.084-0.132-0.167-0.196-0.25
				c-0.516-0.7-1.303-1.419-2.163-1.756c-0.305-0.119-0.628-0.208-0.965-0.294c-0.182-0.047-0.423-0.01-0.571-0.095H8.402
				C8.4,0.007,8.398,0.016,8.396,0.023C7.713,0.027,7.121,0.301,6.633,0.513C5.562,0.975,4.487,2.144,4.052,3.258
				C3.932,3.566,3.852,3.902,3.764,4.241C3.757,4.311,3.751,4.38,3.745,4.448C3.591,5.196,3.684,6.24,3.886,6.868
				C4.324,8.226,5.281,9.394,6.442,10.007z M5.109,4.065c0.402-1.138,1.217-2.08,2.304-2.513c0.253-0.101,0.529-0.166,0.823-0.219
				C8.398,1.318,8.56,1.305,8.722,1.29c0.459-0.001,0.871,0.025,1.229,0.138c1.321,0.411,2.202,1.324,2.661,2.619
				c0.189,0.537,0.268,1.438,0.116,2.094c-0.057,0.244-0.126,0.484-0.209,0.709c-0.107,0.288-0.292,0.547-0.454,0.783
				c-0.484,0.703-1.154,1.201-2.021,1.516C9.712,9.27,9.346,9.245,8.949,9.312C8.826,9.306,8.703,9.299,8.581,9.293
				C8.383,9.262,8.225,9.284,8.046,9.237C7.744,9.157,7.465,9.055,7.21,8.942C6.229,8.509,5.362,7.511,5.066,6.379
				C4.891,5.708,4.887,4.693,5.109,4.065z M16.389,19.666c-0.302,0.488-0.754,0.751-1.339,0.958
				c-0.179,0.03-0.356,0.059-0.534,0.089c-0.584,0.002-1.168,0.004-1.752,0.007H4.163c-0.339,0-0.675,0.015-0.964-0.045
				c-1.184-0.241-2.025-1.085-1.929-2.619c0.01-0.26,0.021-0.519,0.031-0.778c0.004-0.116,0.008-0.233,0.012-0.351
				c0.059-0.359,0.057-0.726,0.135-1.071c0.165-0.727,0.277-1.483,0.608-2.044l0.154-0.331c0.349-0.58,0.761-1.083,1.413-1.354
				c0.2-0.083,0.424-0.133,0.658-0.176c0.116-0.01,0.233-0.021,0.35-0.031c0.167,0.049,0.317,0.191,0.455,0.282
				c0.336,0.215,0.671,0.43,1.007,0.646c0.588,0.324,1.268,0.525,2.009,0.689c0.262,0.059,0.539,0.023,0.817,0.069
				c0.095-0.005,0.188-0.009,0.283-0.014c0.096-0.001,0.193-0.003,0.289-0.006c0.166-0.027,0.363-0.042,0.516-0.082
				c0.11-0.018,0.221-0.036,0.332-0.056c0.682-0.193,1.336-0.43,1.873-0.776c0.285-0.188,0.57-0.377,0.854-0.564
				c0.061-0.042,0.253-0.197,0.338-0.188c0.367,0.037,0.696,0.09,0.983,0.207c0,0,1.445-0.77,0.454-1.204
				c-0.301-0.132-0.642-0.187-1.001-0.256c-0.236-0.046-0.578-0.065-0.793-0.007c-0.21,0.058-0.389,0.188-0.553,0.295
				c-0.243,0.158-0.483,0.31-0.719,0.47c-0.676,0.459-1.631,0.887-2.734,0.891c-1.11,0.003-2.064-0.391-2.74-0.847
				c-0.192-0.129-0.382-0.259-0.583-0.382c-0.29-0.178-0.566-0.469-1.026-0.458c-0.156,0.011-0.312,0.021-0.467,0.031
				c-0.235,0.04-0.462,0.069-0.682,0.132c-1.122,0.32-1.848,1.077-2.396,1.986c-0.433,0.718-0.677,1.595-0.885,2.538
				c-0.105,0.48-0.122,0.988-0.209,1.499c-0.029,0.17,0.025,0.419-0.049,0.545v0.727c0,0.825,0.134,1.361,0.375,1.919
				c0.386,0.895,1.264,1.631,2.286,1.873c0.669,0.16,1.523,0.132,2.359,0.132h9.627c0.082-0.047,0.213-0.031,0.326-0.056
				c0.225-0.051,0.449-0.097,0.657-0.163c0.614-0.199,1.249-0.642,1.597-1.116C17.496,20.315,16.389,19.666,16.389,19.666z"/>
		</g>
	</g>
</g>
<g id="Shape_3_copy_1_" enable-background="new    ">
	<g id="Shape_3_copy">
		<g>
			<rect x="15.256" y="11.954" fill-rule="evenodd" clip-rule="evenodd" fill="#373739" width="2.117" height="9.154"/>
		</g>
	</g>
</g>
<g id="Shape_3_copy_2_1_" enable-background="new    ">
	<g id="Shape_3_copy_2">
		<g>
			<rect x="11.236" y="15.475" fill-rule="evenodd" clip-rule="evenodd" fill="#373739" width="9.402" height="2.117"/>
		</g>
	</g>
</g>
</svg>
