<svg xmlns="http://www.w3.org/2000/svg" xml:space="preserve" style="shape-rendering:geometricPrecision;text-rendering:geometricPrecision;image-rendering:optimizeQuality;fill-rule:evenodd;clip-rule:evenodd" viewBox="0 0 500 500"><defs><style>.str0{stroke:#5d5d5d;stroke-width:.762}</style></defs><g id="Layer_x0020_1"><g id="_1133584256"><path d="M418 142V69c0-5-5-10-10-10h-48c-6 0-10 5-10 10v24l-73-54c-17-12-38-12-54 1L18 200c-9 6-10 19-4 27 7 9 20 11 28 4L245 72c4-1 7-2 10 0l203 149c9 7 22 5 28-4 7-9 5-21-4-28l-64-47z" class="str0" style="fill:#686868"/><path d="M418 142V69c0-5-5-10-10-10h-48c-6 0-10 5-10 10v24l-73-54c-10-7-21-10-32-9v43-1c4-1 7-2 10 0l203 149c9 7 22 5 28-4 7-9 5-21-4-28l-64-47z" class="str0" style="fill:#404040"/><path d="M180 300h65.001v169.999H180z" style="fill:#f2f2f2"/><path d="M245 300h65.001v169.999H245z" style="fill:#d8d8d8"/><path d="M90 470h90V320c0-11 9-20 20-20h90c11 0 20 9 20 20v150h100c17 0 30-13 30-30V240L262 107c-3-2-7-3-12-3s-9 1-13 4L60 240v200c0 17 13 30 30 30z" style="fill:#09f"/></g></g></svg>