<svg xmlns="http://www.w3.org/2000/svg" width="45" height="45" style="enable-background:new 0 0 45 45" xml:space="preserve"><path style="fill-rule:evenodd;clip-rule:evenodd;fill:#a68849" d="M42.428 27.667c-.975-2.725-2.549-4.826-4.752-6.316-.33-.224-.679-.383-1.027-.595a9.28 9.28 0 0 0-3.163-1.191c-.114-.213-.035-.74-.035-1.026V8.58c0-1.295.116-2.817-.304-3.689-.257-.536-.867-1.081-1.482-1.249-.586-.162-1.423-.117-2.172-.117H4.44c-.2.081-.453.06-.642.117-.472.143-.965.478-1.226.84a3.72 3.72 0 0 0-.443.829c-.037.092-.037.335-.129.373v10.204c.162.244.417.644.887.561a.864.864 0 0 0 .7-.619l.012-2.043.012-7.856c.231-.965 1.174-.806 2.335-.806h6.036c.085.132.047.456.047.666v7.669c0 .785-.16 2.334.28 2.662.614.457 1.21-.093 1.646-.373l2.556-1.554c.296-.189.612-.362.911-.56.095-.063.189-.157.315-.188l3.759 2.301c.335.212.958.79 1.518.455a.937.937 0 0 0 .361-.433c.07-.19.035-.493.035-.735v-1.704l.012-8.172c.212-.108.711-.035.992-.035h5.627c.709 0 1.269-.027 1.576.362.246.31.234.781.234 1.354v12.444c-.133.077-.441.016-.619 0a6.35 6.35 0 0 0-1.471.047c-1.085.174-2.047.328-2.954.654-3.028 1.088-4.945 3.036-6.526 5.58-.374.602-.543 1.28-.84 1.973-.414.965-.631 2.321-.63 3.666v.817c.069.432.117.896.151 1.296-.186.107-.676.034-.934.034H7.09c-.903-.003-1.806-.008-2.708-.012-.307-.077-.588-.31-.7-.583-.191-.464-.082-1.792-.082-2.44v-5.475l-.012-2.195a.894.894 0 0 0-.502-.572c-.366-.165-.798.086-.934.28-.051.074-.06.202-.152.234v10.216c.084.14.102.348.175.514.111.252.259.493.42.7.361.463.936.787 1.623.922l3.269.012 11.838.012c.16.247.195.598.315.876.217.502.434 1.027.712 1.482 1.025 1.678 2.355 3.276 4.05 4.272 1.045.615 2.174 1.175 3.491 1.519.572.148 1.171.206 1.786.314l.619.023c.921.15 2.32-.062 3.105-.245 1.957-.457 3.42-1.189 4.809-2.183.324-.231.594-.536.899-.782.354-.285.712-.647.992-1.005 1.007-1.28 1.86-2.656 2.405-4.412.65-2.093.64-5.142-.08-7.156zM21.811 5.895v8.113l-.082.023-2.86-1.763c-.25-.164-.801-.638-1.214-.572-.444.071-.747.368-1.074.572l-2.918 1.774c-.082-.088-.035-.429-.035-.584v-1.61l.012-6.689.047-.035 8.09.012c.082.164.034.532.034.759zm18.773 29.571c-1.203 2.578-2.951 4.323-5.499 5.557l-1.354.478c-.525.184-1.136.225-1.716.327l-.888.048c-.447.072-1.254-.037-1.623-.105-1.206-.225-2.06-.417-3-.876-2.815-1.374-4.706-3.462-5.697-6.666-.354-1.146-.566-2.928-.304-4.378.108-.598.214-1.205.409-1.739 1.181-3.239 3.264-5.284 6.374-6.596.706-.298 1.515-.393 2.347-.561l1.039-.07c5.174-.001 8.528 3.046 10.017 6.736.932 2.31.93 5.623-.105 7.845zM3.272 19.892c.633-.447.313-1.467-.561-1.448-.216.089-.378.1-.514.258-.063.073-.097.258-.197.291v.49c.245.388.716.802 1.272.409zm29.863 6.899c-.422-.085-.914-.047-1.389-.047h-2.394c.044-.184.276-.323.397-.443.274-.274 1.023-.907 1.155-1.237.241-.606-.228-1.115-.817-1.109-.135.056-.254.048-.361.117-.774.771-1.549 1.54-2.323 2.312-.274.274-.75.566-.829 1.016-.1.568.343.838.596 1.074l2.557 2.545c.289.186.725.107.957-.07.892-.682-.565-1.791-.934-2.16-.111-.11-.357-.256-.386-.432l1.611-.012c.655 0 1.399-.067 1.984.047 1.196.233 2.051.928 2.521 1.892.329.671.539 1.798.222 2.673-.182.501-.455.908-.758 1.284-.379.469-1.043.854-1.705 1.027-.604.158-1.438.105-2.184.105h-5.369c-.307 0-.648-.023-.876.058-.708.255-.555 1.235.046 1.507.227.102.871.035 1.18.034h5.486c.68 0 1.369.023 1.927-.104 2.101-.481 3.367-1.928 3.923-3.969.332-1.222-.096-2.498-.455-3.316-.645-1.472-2.015-2.437-3.782-2.792zM6.903 25.414c-.304.112-.491.112-.654.35-.281.41-.064.979.28 1.167.372.204 1.251.113 1.529-.081.37-.259.363-1 0-1.261-.261-.189-.687-.185-1.155-.175zm5.008 1.61h2.849c.837 0 1.483.037 1.646-.631.099-.403-.168-.772-.408-.887-.374-.177-1.113-.093-1.635-.093h-3.607c-.314.117-.473.084-.654.338-.293.409-.067.966.256 1.167.319.199 1.067.106 1.553.106zm-5.592 2.452c-.381.472-.178 1.068.292 1.297.158.076.437.047.654.047h7.109c1.015 0 1.9.175 2.043-.735.025-.161-.042-.29-.082-.386-.266-.646-1.254-.479-2.148-.479l-7.168-.013c-.311.117-.503.027-.7.269z"/></svg>