<svg xmlns="http://www.w3.org/2000/svg" width="45" height="45" style="enable-background:new 0 0 45 45" xml:space="preserve"><path style="fill-rule:evenodd;clip-rule:evenodd;fill:#a68849" d="m40.33 9.763-.082-.012c-.115-.655-.527-.641-.992-.864h-.188l-.059-.082h-.268l-.059-.081h-.187l-.059-.082-.233.012-.082-.094-.163.012-.082-.093-.245.012-.059-.082h-.187l-.059-.082h-.187l-.059-.081h-.187l-.047-.082h-.187l-.059-.082-.163.012L36.355 8l-.163.013-.082-.094-.164.012-.081-.094-.163.012-.059-.081h-.188l-.058-.082h-.187c-.016-.008-.193-.156-.211-.164l-.163.013-.081-.094-.164.012-.082-.094-.163.012c-.058-.021-.167-.138-.222-.163h-.188l-.059-.082h-.186c-.057-.026-.163-.141-.223-.163h-.187c-.02-.027-.039-.056-.059-.082l-.151.012c-.082-.026-.173-.151-.257-.175l-.151.012-.059-.082-.129-.012c-.047-.033-.148-.128-.198-.152h-.187c-.057-.025-.165-.138-.223-.162l-.163.011c-.022-.008-.222-.167-.245-.175l-.163.012-.059-.082c-.093-.045-.177-.036-.269-.081l-.059-.082h-.187l-.035-.07-.128-.012-.035-.069c-.059-.039-.201-.053-.269-.082l-.082-.094-.163.012c-.051-.022-.152-.116-.199-.151-.058-.046-.217-.054-.291-.094l-.059-.081h-.176c-.111-.051-.265-.17-.373-.234-.057-.034-.182-.038-.269-.082-.016-.026-.031-.054-.046-.081h-.117l-.047-.082h-.117l-.047-.081h-.104l-.059-.082-.081.012c-.087-.041-.168-.143-.258-.176l-.081.013c-.02-.028-.039-.056-.059-.082h-.104l-.047-.082h-.188l-.059-.082c-.092-.046-.176-.036-.268-.081l-.129-.152h-.094c-.078-.026-.157-.131-.232-.163h-.105l-.047-.082c-.062-.033-.219-.048-.28-.081l-.046-.082h-.105c-.076-.032-.152-.133-.223-.163-.064-.029-.191-.041-.256-.07l-.117-.152-.129-.012c-.049-.024-.15-.117-.197-.151l-.129-.012c-.104-.057-.18-.173-.28-.233h-.104l-.059-.082c-.093-.045-.177-.035-.27-.081a6.068 6.068 0 0 0-.116-.152l-.128-.012c-.102-.05-.729-.407-.748-.479h-.793c-.021.017-.005.067-.035.081h-.105c-.039.051-.078.103-.117.152-.035.025-.253.068-.292.094a1.485 1.485 0 0 1-.035.069c-.073.039-.237.05-.292.094l-.117.152c-.092.046-.176.036-.269.081l-.059.082h-.105l-.117.151h-.105c-.041.017-.184.145-.222.164-.043.003-.086.008-.128.012l-.117.151h-.105l-.058.082c-.067.029-.191.04-.257.07-.07.031-.146.13-.222.163h-.105l-.046.082h-.117l-.047.081h-.117c-.066.036-.256.23-.304.245-.247.08-.536.227-.771.385l-.128.013-.035.069c-.063.042-.197.051-.269.082l-.082.094-.082-.012c-.057.025-.164.14-.222.163h-.187l-.046.082h-.117c-.019.01-.19.153-.21.163-.077.037-.199.04-.269.082-.065.039-.138.121-.21.152h-.105l-.047.081h-.117l-.047.081h-.187c-.02.028-.039.056-.059.082h-.105l-.058.082-.082-.012c-.073.024-.162.121-.222.164h-.187l-.058.081c-.087.047-.175.041-.269.082-.058.024-.165.137-.222.163h-.187c-.049.023-.176.146-.222.163a4.52 4.52 0 0 1-.164-.012c-.049.018-.192.159-.245.176a1.392 1.392 0 0 0-.145-.015c-.057.025-.164.138-.222.163h-.187l-.058.082h-.105c-.021.012-.199.154-.222.163-.051-.004-.102-.007-.152-.012-.082.027-.173.151-.257.176l-.152-.012c-.02.026-.039.055-.059.082h-.187l-.059.081h-.187c-.057.026-.165.138-.222.163h-.187l-.059.082-.163-.012c-.047.02-.189.161-.241.177l-.164-.013-.059.082h-.187l-.047.082h-.187l-.059.082h-.187c-.017.027-.037.054-.056.082l-.164-.012-.081.094-.164-.012a7.862 7.862 0 0 0-.081.094l-.164-.013-.081.094-.164-.012-.059.082h-.187l-.046.082h-.187a5.682 5.682 0 0 1-.058.081h-.187l-.059.082h-.187c-.018.028-.038.055-.057.082l-.246-.011-.081.092-.164-.011c-.027.031-.054.063-.082.093l-.233-.011-.058.082h-.187l-.058.081h-.187l-.058.082h-.269l-.059.081a7.661 7.661 0 0 1-.151-.011c-.051.011-.05.077-.093.094l-.153-.013c-.081.026-.413.276-.455.362-.055.114-.033.2-.082.327-.025.038-.02.031-.082.035v9.853h.059c.081.139.035.487.035.689v.735c.035.062.069.035.07.163v.771l.082.07v.502l.082.059v.501l.082.06v.419l.082.071v.338l.082.059v.339l.082.069v.257l.082.059v.351l.07.034v.27l.082.058v.188l.082.059v.257l.082.058v.269l.082.058v.188l.082.059v.175l.082.07v.175c.023.017.047.031.07.047v.175l.082.07v.176l.082.058v.187l.082.059v.188l.082.058v.105l.082.059v.187c.028.049.125.145.152.198v.187c.026.058.137.165.164.223v.187l.082.059c.073.151.091.268.164.42l.082.07c.045.112.024.19.07.314.023.064.134.174.163.234l.012.116.14.104c.058.077.04.174.087.274l.07.046c.059.089.035.169.082.269.028.06.135.163.164.223.047.099.029.195.093.28l.14.104.012.116c.044.093.196.223.233.293.056.105.029.16.082.268l.163.141v.104l.164.141v.104l.152.129c.052.106.031.148.082.257l.233.21.012.117.152.128v.105l.245.222v.105l.245.221v.105l.233.21.012.117.315.292v.104l.467.433.012.117.222.197c.209.188.388.417.584.619l.315.28v.104c.012.026.446.467.491.503l.128.011.187.223.467.432.105.14c.042.005.085.008.128.012l.432.468.128.012.28.314.128.013.269.303h.105l.304.327h.105l.14.163h.105l.117.152h.117l.117.151.128.012.199.233.128.012.117.151h.105l.14.164c.091.046.177.036.269.081l.14.164c.071.03.207.041.269.082l.117.151c.06.033.22.049.28.082l.117.151.117.012c.068.04.159.141.233.163l.082-.012.059.082h.105l.059.082h.105c.056.027.163.139.222.163.08.033.243.062.28.093.023.021.01.058.046.07h.094c.023.027.046.056.07.082l.082-.012.058.082h.105c.02.026.039.055.059.082h.187l.047.081h.117l.047.082h.187c.057.026.165.138.222.163l.163-.012.082.094.245-.012.082.094.164-.012.058.081h.269l.023.082h1.285v-.059c.064-.03.21.015.291-.023l.059-.081h.188l.058-.082.245.012.082-.094.164.012c.057-.024.164-.137.221-.163h.188l.047-.082h.116l.047-.081h.187c.058-.024.165-.139.223-.164.095-.042.15-.034.244-.07l.094-.093h.094l.035-.07.128-.012.035-.07c.077-.038.233-.047.292-.093l.035-.07h.104l.059-.082.081.012c.086-.027.172-.136.258-.175h.094a8.62 8.62 0 0 1 .116-.151c.06-.033.22-.049.28-.082l.116-.151c.062-.041.198-.051.269-.082l.141-.164c.091-.045.178-.035.268-.081l.141-.164h.105l.116-.151.128-.012.199-.233.129-.012c.039-.051.077-.102.116-.151h.116l.117-.152h.105l.14-.163h.104l.305-.327h.104l.269-.303.129-.013.279-.314.129-.012c.141-.151.28-.304.42-.455l.141-.024.677-.712c.063-.058.157-.051.21-.093.043-.035.479-.479.49-.503v-.104l.315-.28c.196-.202.374-.432.584-.619.073-.065.147-.132.222-.197l.012-.117.467-.433v-.104c.105-.098.211-.194.315-.292l.012-.117.233-.21v-.105l.245-.221v-.105l.245-.222v-.105l.152-.128.012-.117.232-.21c.051-.108.03-.15.082-.257l.152-.129v-.104l.163-.141v-.104l.163-.141c.053-.107.025-.162.082-.268.037-.07.189-.2.233-.293l.012-.116.14-.104c.064-.084.047-.182.094-.28.028-.06.136-.163.164-.223.047-.1.023-.179.081-.269l.07-.046c.047-.1.029-.196.093-.281l.141-.104.012-.116c.029-.061.14-.17.164-.234v-.175c.025-.056.126-.157.151-.21.071-.152.091-.27.163-.42l.082-.059v-.187c.027-.021.055-.04.082-.059v-.105c.027-.02.054-.038.081-.059v-.187c.026-.054.124-.149.151-.198v-.187c.026-.058.138-.165.164-.222v-.188a4.19 4.19 0 0 0 .082-.059v-.187l.081-.058v-.176l.082-.07v-.175c.023-.016.046-.03.069-.047v-.175l.082-.07v-.175l.082-.059v-.188l.082-.058v-.269l.082-.058v-.257l.081-.059v-.188c.027-.02.055-.038.081-.058v-.27l.07-.034v-.351l.082-.059v-.257l.082-.069v-.339l.082-.059v-.338l.081-.071v-.419l.082-.06v-.501l.081-.059v-.502l.082-.07v-.899c.154-.307.071-.993.07-1.424l.094-.035c-.006-3.277-.006-6.563-.006-9.846zm-1.927 10.752v.829l-.081.058v.665c-.027.021-.055.04-.082.06v.502c-.027.019-.055.038-.082.059v.419a5.187 5.187 0 0 1-.082.071v.338l-.081.059v.339l-.082.069v.338l-.069.048v.257c-.027.02-.055.038-.082.059v.269l-.082.058v.257l-.082.059v.187c-.027.021-.055.039-.082.059v.269l-.081.059v.187c-.027.02-.055.038-.082.059v.175l-.069.047v.188l-.082.057v.176a5.187 5.187 0 0 0-.082.071v.174c-.027.021-.055.039-.082.059v.188c-.025.057-.137.164-.163.221v.188l-.081.059v.175c-.025.057-.125.158-.152.21v.105l-.082.058v.187c-.027.021-.055.039-.082.06-.051.108-.025.161-.081.269-.03.056-.14.158-.163.221v.176c-.024.052-.127.156-.152.21v.105l-.082.058v.105l-.163.141v.104l-.069.035-.012.116c-.055.113-.18.26-.234.374v.105c-.027.019-.055.038-.082.059v.104l-.163.14v.105c-.051.104-.167.194-.233.28-.061.078-.038.176-.082.269l-.163.14v.105l-.163.141v.104l-.164.14v.105c-.051.042-.101.086-.151.129v.104l-.163.14v.105l-.234.198-.012.129-.232.198v.104l-.234.21-.012.118-.396.373v.105l-.396.373c-.223.446-.66.69-.969 1.051l-1.145 1.168h-.105l-.619.642H29.7l-.222.245h-.105l-.268.304-.129.012-.199.233-.128.012-.198.233-.129.012-.116.152h-.104l-.129.151h-.105l-.222.244h-.104l-.141.164h-.105c-.039.051-.077.102-.116.151h-.104c-.028.011-.192.148-.223.163l-.129.013a8.62 8.62 0 0 1-.116.151c-.653.326-1.276.688-1.938.957l-.058.082h-.116l-.047.082h-.188c-.057.025-.164.138-.222.163l-.163-.012-.082.094-.164-.012c-.019.027-.038.055-.058.081h-.187c-.105.043-.023.08-.223.082-.145.002-.354.175-.583.082l-.059-.082-.233.012c-.054-.011-.053-.077-.093-.094l-.164.013-.082-.094-.164.012-.082-.094-.164.012c-.058-.024-.165-.138-.222-.163h-.187l-.047-.082h-.117c-.056-.029-.161-.14-.222-.163-.09-.035-.174-.033-.257-.082l-.07-.082c-.085-.025-.143-.019-.245-.069l-.058-.082h-.105l-.059-.082h-.105l-.047-.081h-.117l-.035-.07c-.065-.044-.214-.054-.28-.094l-.128-.151c-.091-.046-.177-.037-.269-.082a19.859 19.859 0 0 0-.117-.151l-.128-.013c-.03-.015-.195-.153-.222-.163h-.105l-.117-.151h-.105l-.14-.164h-.105l-.222-.244h-.105l-.129-.151h-.105c-.039-.051-.078-.103-.117-.152l-.128-.012a48.126 48.126 0 0 0-.198-.233l-.128-.012a19.931 19.931 0 0 1-.187-.222 5.84 5.84 0 0 0-.14-.023 38.911 38.911 0 0 0-.269-.304h-.105l-.222-.245c-.063-.031-.098.009-.14-.035l-.583-.606c-.373-.187-.673-.551-.934-.854-.397-.459-1.004-.801-1.284-1.365l-.397-.373v-.105l-.397-.373-.012-.118a15.218 15.218 0 0 1-.233-.21v-.104l-.233-.198-.012-.129-.233-.198v-.105l-.164-.14v-.104l-.152-.129v-.105a20.287 20.287 0 0 1-.163-.14v-.104l-.164-.141v-.105l-.164-.14c-.034-.072-.04-.215-.082-.269-.066-.086-.183-.176-.233-.28v-.105l-.164-.14v-.104c-.027-.021-.055-.04-.082-.059v-.105c-.055-.114-.179-.261-.233-.374a44.054 44.054 0 0 1-.012-.116l-.07-.035v-.104l-.164-.141v-.105l-.082-.058v-.105c-.026-.054-.127-.158-.152-.21v-.176l-.082-.069c-.071-.148-.093-.271-.164-.42-.027-.021-.055-.039-.082-.06v-.187l-.082-.058v-.105c-.027-.052-.127-.153-.152-.21v-.175l-.082-.059v-.188c-.026-.057-.138-.164-.164-.221v-.188l-.082-.059v-.174a5.187 5.187 0 0 0-.082-.071v-.176l-.082-.057v-.188l-.07-.047v-.175c-.027-.021-.055-.039-.082-.059v-.187l-.082-.059v-.269c-.027-.02-.055-.038-.082-.059v-.187l-.082-.059v-.257l-.082-.058v-.269c-.027-.021-.055-.039-.082-.059v-.257c-.023-.016-.047-.031-.07-.048v-.338c-.027-.022-.054-.047-.082-.069v-.339l-.082-.059v-.338l-.082-.071v-.419c-.047-.103-.082-.064-.082-.269v-.292c-.027-.02-.055-.039-.082-.06v-.665a14.071 14.071 0 0 1-.082-.058v-.829c-.17-.303-.07-1.348-.07-1.81v-8.114c.044-.021.15.006.21-.023.02-.026.039-.054.058-.082h.187l.047-.081h.187l.059-.082c.082.005.163.009.245.012l.082-.093.164.011c.02-.026.039-.053.058-.081h.187l.059-.081h.268l.059-.082c.066-.008.128-.012.19-.016h.012l.035-.07h.187l.058-.082h.187l.058-.081.164.012.082-.094h.187l.058-.082.164.012.059-.081h.187l.059-.082h.187l.047-.081h.187l.058-.083h.187c.049-.022.177-.146.222-.163l.164.013.082-.095.164.013.058-.083c.051-.026.26-.036.351-.081l.058-.082h.187c.02-.026.039-.054.058-.081h.175c.055-.025.173-.142.222-.164l.164.012c.051-.016.174-.135.222-.163h.187c.058-.022.167-.138.222-.163h.187c.056-.026.165-.141.222-.164l.163.012.059-.081h.105l.082-.094.163.012.059-.082c.109-.053.16-.027.269-.081l.058-.082h.187c.032-.016.162-.127.198-.151.072-.05.224-.061.28-.094l.07-.082.152.012c.064-.022.166-.134.222-.163h.117c.053-.026.156-.138.21-.163h.187c.055-.027.165-.141.222-.164.072-.03.207-.042.269-.082l.035-.069.128-.012.035-.07.128-.012.035-.07.128-.012.035-.07h.105c.058-.027.164-.138.222-.162l.164.011.058-.082h.105c.029-.01.191-.147.222-.163h.105l.059-.081c.092-.046.176-.037.268-.082.057-.028.164-.139.222-.163h.105l.117-.152c.055-.034.179-.045.269-.082.02-.026.039-.054.058-.082h.105l.058-.081h.105l.059-.081h.105l.058-.082.082.011c.051-.016.176-.136.222-.163.057-.034.219-.043.292-.093l.117-.152h.117c.019-.01.189-.153.21-.163.096-.045.182-.029.269-.082l.128-.151c.092-.045.177-.036.269-.082l.059-.082h.105l.117-.151.128-.012.035-.07c.078-.051.098-.005.187-.094.138.012.206.112.292.164l.128.012.117.151h.105l.059.082c.092.046.176.036.268.082l.129.151c.086.053.174.037.269.082l.058.082h.105l.047.081h.117l.116.152.128.011.035.07.129.012c.043.025.175.149.222.163l.082-.011.058.082h.105c.051.024.151.114.199.151.06.046.217.053.291.093l.035.07.129.012c.064.038.147.142.222.164.026-.005.054-.008.081-.012l.059.081h.105l.117.151.209.013.035.069.129.012.035.07c.06.04.201.053.268.081l.059.083h.105c.059.025.164.135.222.162.11.052.16.026.269.082l.059.082h.105l.058.082h.105c.046.025.172.146.222.163l.152-.012c.064.022.172.137.232.164.094.04.184.034.27.081l.046.082h.187l.059.081h.105l.059.082.082-.012c.075.025.155.124.221.163h.188l.059.082c.109.056.156.032.268.082l.059.082h.188c.055.025.164.141.221.163h.105l.059.082.164-.013c.045.018.173.142.221.164h.188c.057.026.164.14.222.163h.187l.059.082h.105l.059.082.151-.012c.083.026.174.149.257.175l.151-.012.059.082h.187l.059.081.129.012.035.07h.186l.059.081h.188c.031.019.195.155.221.165a9.05 9.05 0 0 1 .164-.013l.082.094.163-.012c.058.025.165.138.222.164h.188l.047.081h.186l.059.082.152-.012c.052.013.055.076.094.093l.163-.012.081.094.164-.012.082.094.163-.012.058.081h.188c.02.027.039.056.059.082h.187l.058.082.188.011h.012l.035.071h.269l.058.081h.188l.059.081.163-.011.081.093.246-.012.059.082h.186l.047.081h.188c.094.04.047.084.245.082.068.15.023.472.023.666v7.017c-.024.492.069 1.974-.095 2.265zm-21.597-9.866h.257c.145-.056.221-.234.408-.245.059-.131.078-.193.187-.269V9.4c-.111-.094-.143-.238-.245-.338-.069-.068-.162-.007-.257-.176h-.677c-.06.091-.062.027-.163.081-.088.049-.38.411-.42.515v.304c0 .568.335.863.91.863zm-4.389 1.845.082-.093.164.012.059-.082h.187l.035-.07.128-.012c.02-.026.039-.055.058-.082h.187c.02-.026.039-.054.059-.082l.151.013c.083-.023.174-.149.257-.176l.152.012.059-.081h.187c.056-.022.168-.139.222-.164h.187l.059-.081c.114-.05.157-.027.268-.082.084-.041.062-.119.105-.21l.151-.129V11c.024-.054.15-.175.082-.327-.027-.019-.055-.038-.082-.059v-.187a1.27 1.27 0 0 0-.502-.502h-.269c-.039-.021-.021-.061-.082-.082l-.035.07-.362.012c-.055.026-.165.141-.222.164h-.187l-.058.081-.152-.012c-.084.026-.174.148-.257.175a3.887 3.887 0 0 1-.152-.012c-.043.017-.042.083-.093.094l-.152-.012c-.058.022-.167.138-.222.163h-.187l-.058.082h-.187c-.069.033-.15.138-.222.164l-.164-.013-.082.094-.164-.012-.058.082h-.187l-.058.082h-.187l-.047.082h-.187l-.059.081h-.187l-.059.082h-.187l-.059.081-.164-.011-.082.093-.164-.011-.082.093c-.055-.004-.109-.009-.164-.012-.014.03-.034.057-.053.084h-.187a1.849 1.849 0 0 0-.338.257c-.275.354-.164 1.263-.164 1.867v2.335c.022.047.224.4.257.421l.117.012.152.163.233-.012c.043.017.042.082.093.094h.035c.067-.007.06-.075.105-.094h.245c.021-.012.362-.269.362-.269.072-.15.026-.145.163-.245l.012-3.001c.135-.021.111-.067.187-.093l.163.011.082-.093.164.012.058-.081h.187l.046-.082h.187l.058-.081h.187l.058-.082c.055.003.109.007.164.012.052-.017.195-.158.245-.176l.165.012zm13.495 13.472c1.33-1.392 2.755-2.693 4.086-4.086.68-.71 1.395-1.394 2.09-2.089.23-.231.475-.402.63-.713l.315-.291c.045-.09.036-.182.082-.27l.082-.058v-.105c.025-.049.125-.146.151-.198v-.269l.081-.059v-.42l.082-.059V16.999l-.082-.058v-.421l-.081-.069v-.257c-.498-1.104-1.39-1.881-3.001-1.868-.148.158-.225-.001-.408.082l-.059.082h-.268l-.047.081h-.117l-.047.082h-.105c-.113.05-.187.171-.291.233H28.9l-2.51 2.533-.969.945-3.596 3.619c-.395.456-.872.89-1.308 1.308-.16.153-.359.3-.479.49h-.023c-.329-.263-.645-.629-.922-.945-.51-.582-1.131-1.079-1.669-1.635-.328-.338-.578-.654-1.016-.863-.05-.024-.219-.208-.304-.246h-.187c-.02-.026-.039-.054-.059-.082h-.187l-.059-.081-.397.012a2.413 2.413 0 0 1-.058-.082l-.42-.012-.082.094-.409-.012-.082.094-.233-.013c-.04.015-.186.146-.222.164-.075.038-.236.049-.292.094l-.117.151h-.105c-.021.013-.577.571-.584.584v.105l-.163.14v.104c-.027.021-.055.04-.082.059v.105l-.082.059v.175c-.023.016-.047.03-.07.047v.187l-.082.059v.502c-.023.053-.151.176-.082.327l.082.058v.502l.082.07v.176l.07.046.012.198c.495.754 1.116 1.329 1.739 1.95.424.423.822.878 1.272 1.272l1.086 1.108 1.097 1.074c.208.237.401.471.701.619-.102-.114.444.656 1.763.724.656.034 1.604-.396 1.996-.724l1.424-1.447c.342-.295.617-.664.957-.957.562-.48 1.073-1.042 1.581-1.575zm-2.16-.49c-.764.785-1.56 1.539-2.323 2.323-.275.283-.727.864-1.074 1.028h-.666c-.469-.216-.809-.669-1.167-1.028l-3.969-3.946c-.312-.284-.654-.599-.654-1.189v-.223c.025-.055.127-.156.152-.21l.012-.116c.041-.055.201-.229.257-.258h.117c.054-.028.154-.138.21-.163h.222c.557 0 .932.378 1.191.677l3.467 3.491c.782.391 1.105-.158.972-.043.147-.127.373-.32.511-.448.317-.289.599-.625.899-.933.28-.289.609-.54.875-.841.572-.646 1.223-1.224 1.833-1.833 1.267-1.267 2.535-2.532 3.782-3.818.498-.512 1.019-1.004 1.518-1.517.109-.112.332-.126.42-.257.857-.011.985.123 1.262.7l.07.047v.514l-.07.047-.012.198-.549.514c-.432.444-.865.885-1.296 1.33l-.549.514c-.526.594-1.127 1.115-1.681 1.682-1.241 1.265-2.525 2.488-3.76 3.758zm9.678 4.67c-.25-.326-.492-.534-1.074-.525-.135.134-.383.171-.514.339l-.012.116-.15.129-.012.117-.234.21v.105l-.163.139v.105l-.245.222v.105l-.234.21v.104c-.131.126-.264.249-.396.375l-.012.116-.467.433-.012.116-.314.292-1.039 1.063c-.082.094-.236.286-.339.35l-.128.012-.352.386-.128.012-.28.314-.128.012c-.058.047-.558.551-.572.584v.187l-.081.059v.479c.026.024.054.047.081.07.036.079.048.222.093.28.111.142.442.257.713.257l.361-.012c.055-.033.09-.127.141-.151l.129-.013.268-.303h.105l.304-.327h.104l.374-.396c.432-.214.706-.64 1.039-.958.718-.688 1.421-1.387 1.984-2.229l.233-.21v-.104c.078-.067.156-.134.234-.199l.011-.116.152-.129v-.105l.245-.222v-.104l.151-.129c.072-.106.103-.307.163-.433l.082-.058c.061-.137-.061-.196-.082-.245l.001-.33zm-8.451 6.444c-.061.08-.063.032-.164.082-.129.063-.369.454-.432.595v.421l.082.059v.175c.038.09.402.385.502.433h.676l.034-.071.129-.012.105-.14.233-.198c.185-.343.05-.804-.081-1.074-.144-.3-.627-.279-1.084-.27z"/></svg>