<svg xmlns="http://www.w3.org/2000/svg" width="45" height="45" style="enable-background:new 0 0 45 45" xml:space="preserve"><path style="fill-rule:evenodd;clip-rule:evenodd;fill:#a68849" d="M11.192 7.767c.08-.178.026-1.016.023-1.285H9.932l.012 1.262c.217.098.953.025 1.248.023zm8.966 0c.107-.199.038-.987.035-1.285H12.5l.012 1.272 7.646.013zm-5.09 1.296v1.226l.012.034h7.646c.099-.217.026-.953.023-1.249-.119-.062-.436-.022-.63-.022h-1.506l-5.51-.013-.035.024zm21.948 28.076.654-.245c.655-.354 1.598-1.279 1.657-2.195.099-.049.345-.022.514-.022.765 0 1.915.187 2.078-.433h.059v-7.472h-.012c-.095-.022-.12-.196-.187-.257a24.645 24.645 0 0 1-.339-.222l-2.638-1.482c-.094-.161-.035-1.184-.035-1.471v-2.498c0-.515.031-1.081-.082-1.483-.195-.692-.809-1.18-1.553-1.331l-2.078-.011h-4.588c-.086-.192-.023-1.067-.023-1.354v-3.28c0-.55.102-1.361-.211-1.611-.346-.277-1.267-.163-1.867-.163H10.877l-6.864.011c-.26.073-.381.389-.49.421v22.204c.081.021.251.335.467.409.292.102 1.173.023 1.553.023l.561-.012c.031.017.402.962.479 1.085a3.03 3.03 0 0 0 2.207 1.425l.012.023v.012c-.489.099-1.196.023-1.763.023H3.522v1.284h38.455v-1.284h-3.456c-.586 0-1.287.056-1.797-.023v-.012c.07-.058.186-.031.292-.059zm-2.09-13.974v-3.841l.035-.036c.632.037 1.943-.129 2.313.164.272.218.209.771.209 1.261l-.012 3.701h-2.51c-.063-.045-.035-1.067-.035-1.249zM30.443 32.2V19.324l.035-.036 3.141.013c.084.187.023 1.07.023 1.354v3.279c0 .555-.105 1.36.209 1.611.242.192.705.152 1.145.152h2.779l2.077 1.19c.184.11.724.319.817.479l.012.233c-.117.052-.356.023-.514.023-.691 0-1.675-.139-1.949.292-.13.202-.094.592-.094.922 0 .769-.168 2.235.292 2.533.279.182 1.735.098 2.241.094.051.114.023.349.023.502v1.401c-.181.082-1.045.025-1.319.022-.147-.25-.157-.587-.304-.828-.387-.636-.861-1.178-1.576-1.482-1.695-.725-3.203.142-3.945 1.189-.188.267-.442.676-.455 1.086-.154.089-.54.035-.76.035h-1.855c-.096-.211-.023-.898-.023-1.188zm10.227-2.019h-1.226c-.06-.042-.038-1.07-.035-1.249.02-.012.039-.022.058-.035h1.156c.07.041.092 1.123.047 1.284zM4.842 12.892l24.306.011.012 15.329c-.012.008-.023.016-.035.022l-24.282.012c-.083-.184-.023-.743-.023-.991V13.942c-.002-.236-.064-.891.022-1.05zm1.716 19.496c-.159.248-.365.603-.385.968-.188.109-1.037.039-1.331.035-.092-.203-.023-.845-.023-1.121v-2.696l.035-.034 24.283.011c.091.204.023.846.023 1.121v2.685a.364.364 0 0 1-.035.024l-10.904.011c-.144-.245-.161-.573-.292-.816a3.488 3.488 0 0 0-1.249-1.319c-1.426-.892-3.349-.267-4.109.794-.113.157-.27.303-.327.514-.044.025-.048.029-.105.023-.463-.823-1.056-1.333-2.02-1.658a2.263 2.263 0 0 0-.957-.094c-.266.042-.473.018-.701.094-.883.293-1.445.741-1.903 1.458zm.922.992c.231-.553.632-.969 1.203-1.18.155-.031.311-.063.467-.093 1.42-.011 2.53 1.276 1.903 2.72-.256.59-.814.998-1.541 1.12-1.325.224-2.567-1.29-2.032-2.567zm5.779 3.852h-2.253c-.414 0-.879.025-1.226-.023v-.012c.079-.065.241-.034.35-.07.251-.083.503-.172.724-.292.419-.228.81-.596 1.074-.98l.222-.385.059.011c.103.066.152.271.222.374.177.258.432.546.689.724.265.184.559.349.875.479l.583.141c-.203.11-.99.033-1.319.033zm-.035-3.794c.176-.582.654-.998 1.191-1.225.167-.036.334-.071.502-.105 1.407-.011 2.542 1.285 1.903 2.72-.262.588-.812.998-1.541 1.12-1.344.226-2.448-1.213-2.055-2.51zm21.107 3.794H16.878c-.326 0-1.065.077-1.284-.023h-.024l-.012-.023c.327-.116.614-.14.911-.269.667-.29 1.289-.944 1.553-1.635l.175-.572c.054-.066.752-.034.911-.034h2.744l11.149-.012c.139.068.113.297.176.443.152.362.334.691.56.98.282.363.733.693 1.179.888.147.063.68.151.771.222-.202.113-1.026.035-1.356.035zm2.089-1.285c-1.328.225-2.533-1.253-2.043-2.545.216-.565.629-.958 1.18-1.189.164-.036.326-.071.49-.105 1.182-.009 1.752.602 2.02 1.518.115.394.038.922-.117 1.226-.29.568-.792.972-1.53 1.095zM6.733 24.391c.179.104.969.038 1.249.034.085-.148.035-.521.035-.735v-1.81c.113-.052.348-.023.502-.023h1.389a.422.422 0 0 0 .023-.035V20.62l-.012-.034-1.879-.012c-.099-.218-.026-.954-.023-1.249.09-.047.298-.023.455-.023l2.066-.013c.059-.042.038-1.069.035-1.248-.222-.101-.705-.023-.98-.023H7.258c-.115.062-.251.087-.339.175-.3.3-.187 1.192-.187 1.774v4.424zm5.125 0c.179.104.969.038 1.249.034.085-.148.035-.521.035-.735v-1.81c.157-.071.497-.023.7-.023.333.001.715-.032.922.094.434.265.292 1.256.292 1.938l.012.49.012.035h1.226c.065-.051.035-.724.035-.876 0-1.098.021-1.704-.479-2.3.028-.146.17-.232.233-.35.104-.192.184-.427.233-.666.094-.453-.07-.887-.21-1.156-.662-1.27-1.874-1.065-3.736-1.05-.115.062-.251.087-.339.175-.3.3-.187 1.192-.187 1.774v4.426zm1.284-5.067.046-.036c.78.062 1.711-.18 1.868.514a.609.609 0 0 1-.059.374c-.187.428-.564.397-1.179.397h-.654c-.097-.218-.025-.954-.022-1.249zm4.483 3.934c0 .335-.027.688.105.887.297.452 2.035.28 2.813.28l.887-.011c.059-.042.038-1.07.035-1.249-.172-.078-.54-.023-.759-.023h-1.775c-.099-.22-.026-.963-.023-1.262.113-.052.348-.023.502-.023h1.39c.065-.142.06-1.095.012-1.271-.626-.004-1.253-.009-1.88-.012-.098-.218-.026-.954-.023-1.249.09-.047.298-.023.455-.023l2.066-.013c.059-.042.038-1.069.035-1.248-.222-.101-.705-.023-.981-.023H18.15c-.174.086-.333.133-.432.291-.131.211-.093.618-.093.958v3.991zm5.125 0c0 .335-.027.688.105.887.297.452 2.036.28 2.813.28l.888-.011c.06-.042.038-1.07.035-1.249-.172-.078-.54-.023-.759-.023h-1.775c-.099-.22-.025-.963-.022-1.262.113-.052.348-.023.502-.023h1.39c.064-.142.06-1.095.012-1.271l-1.881-.012c-.098-.218-.025-.954-.022-1.249.09-.047.298-.023.455-.023l2.066-.013c.06-.042.038-1.069.035-1.248-.222-.101-.705-.023-.981-.023h-2.334c-.174.086-.333.133-.432.291-.131.211-.093.618-.093.958v3.991zm12.293 5.008h1.774c.1-.219.026-.963.023-1.26-.172-.077-.54-.023-.759-.023h-1.775c-.099.219-.025.962-.022 1.261.171.076.54.022.759.022zm-26.36 5.125c-.065.143-.06 1.096-.012 1.273h1.226c.012-.004.023-.009.035-.012l.012-1.226-.035-.024a496.63 496.63 0 0 1-1.226-.011zm5.766 0c-.064.143-.06 1.096-.011 1.273h1.226c.059-.043.038-1.07.035-1.249-.218-.1-.954-.026-1.25-.024zm21.143 0-.023.012v1.227l.012.035h1.226c.06-.043.038-1.07.035-1.249-.219-.101-.955-.027-1.25-.025z"/></svg>