<svg xmlns="http://www.w3.org/2000/svg" width="45" height="45" style="enable-background:new 0 0 45 45" xml:space="preserve"><path style="fill-rule:evenodd;clip-rule:evenodd;fill:#a68849" d="M41.039 26.514v-3.35c-.107-.179-.096-.469-.166-.686a4.436 4.436 0 0 0-.52-1.084 4.04 4.04 0 0 0-1.105-1.083l-.553-.31-.1-1.316c-.216-1.219-.375-2.359-.752-3.405-1.412-3.911-3.732-6.684-6.943-8.79a14.454 14.454 0 0 0-2.753-1.426c-.885-.335-1.816-.564-2.797-.829l-.619-.089c-.946-.179-2.016-.245-3.162-.231l-.487.011-1.537.155c-1.397.271-2.698.563-3.87 1.061-4.562 1.938-7.783 5.351-9.508 10.128-.326.902-.498 1.886-.697 2.908l-.144 1.403-.011.398c-.021.063-.682.413-.785.486-.5.354-.839.869-1.161 1.404-.441.734-.409 1.847-.409 3.029v3.549c.106.175.098.458.166.675.155.493.406.939.686 1.315.583.786 2.355 1.907 3.858 1.383.555-.194 1.056-.56 1.349-1.019.453-.708.42-1.59.42-2.764v-4.345c0-.967.058-1.987-.265-2.62a2.646 2.646 0 0 0-1.338-1.216l-.652-.166c-.047-.034-.002-.581.022-.73.122-.738.222-1.434.387-2.111.623-2.559 2.128-4.997 3.726-6.601 1.359-1.364 2.921-2.502 4.843-3.306.482-.201 1.023-.456 1.559-.598.805-.212 1.634-.354 2.521-.519.213-.016.427-.03.641-.045.345-.059.77-.044 1.172-.044 1.324 0 2.519.139 3.56.442.488.142.932.24 1.393.397 2.379.812 4.79 2.504 6.215 4.279.773.965 1.621 1.953 2.122 3.184.231.566.544 1.147.752 1.758.293.859.444 1.724.619 2.72.06.343.132.772.133 1.15-.188.111-.481.103-.686.188-.593.246-1.011.669-1.327 1.193-.343.571-.266 1.586-.266 2.499v4.444c0 .849-.07 1.763.178 2.365a2.57 2.57 0 0 0 1.404 1.383l.696.177c.021.016.007.001.022.022v2.123c-.047.285-.075.565-.166.817-.449 1.25-1.398 2.17-2.787 2.477-.734.162-1.734.067-2.576.067l-.851.011c-.116-.061-.364-.653-.464-.796-.246-.352-.703-.699-1.129-.863-.564-.217-1.346-.198-2.145-.198-.676 0-1.763-.098-2.322.055-1.005.274-1.724.903-2.045 1.857-.077.231-.079.484-.122.752-.085.542.208 1.194.398 1.493.448.701 1.036 1.162 2.013 1.337l1.735.012c.716-.001 1.64.098 2.2-.1.91-.321 1.447-.87 1.824-1.725l2.985-.012 1.028-.144a5.412 5.412 0 0 0 1.77-.763c1.323-.878 2.146-2.161 2.465-4.058l.012-2.653c.024-.08.744-.475.861-.564.551-.415.951-1.035 1.238-1.713.312-.719.247-1.805.247-2.835zm-33.545-4.71c.234.346.122 1.233.122 1.78v4.444c0 .98.214 1.94-.674 2.079-.458.07-.883-.161-1.139-.321-1.293-.809-1.006-2.228-1.006-4.234v-1.504c0-.388-.025-.742.078-1.051.229-.688.69-1.108 1.327-1.393.162-.033.324-.065.486-.1.41-.002.645.063.806.3zm21.25 16.816c-.088.302-.369.543-.674.63l-2.168.012c-.549 0-1.111.059-1.438-.166-.316-.218-.491-.786-.265-1.228.087-.17.317-.354.509-.42l.266-.044h2.133c.341 0 .778-.051 1.051.044a.961.961 0 0 1 .586 1.172zm10.238-9.651c-.317.669-.928 1.008-1.803 1.139-.958.141-.795-1.081-.795-1.924v-4.666c0-.717-.121-1.606.309-1.902.086-.059.183-.065.287-.11 1.329-.005 2.027.764 2.223 1.891v2.643c0 1.004.106 2.239-.221 2.929zm-12.139-.642c.888 0 1.741.016 2.377-.232 1.179-.461 2.017-1.352 2.399-2.609.174-.574.133-1.354.133-2.09v-5.97c0-.662.022-1.33-.133-1.847-.445-1.478-1.457-2.349-2.975-2.765-.456-.124-1.072-.065-1.614-.065H16.007l-.298.021c-.306.052-.618.072-.874.188-1.063.479-1.835 1.096-2.3 2.167-.299.688-.288 1.628-.288 2.632v5.572c0 .608-.053 1.278.056 1.813.355 1.742 1.76 3.171 3.836 3.184.069.119.033.408.033.586v1.503c.139.878.488 1.385 1.172 1.703.534.248 1.304.098 1.714-.144.193-.114.335-.306.498-.453 1.076-1.065 2.152-2.131 3.229-3.195h4.058zm-4.711-1.791c-.408.151-.867.716-1.15 1.027l-1.968 1.936c-.224.224-.68.792-.94.917-.149-.072-.077-.641-.077-.884 0-.606.106-2.227-.111-2.576-.28-.452-.749-.454-1.492-.454a90.194 90.194 0 0 1-.52-.011c-.6-.125-1.062-.352-1.371-.763-.494-.657-.432-1.512-.431-2.664V18.2c0-.869-.109-1.975.221-2.533.245-.412.6-.807 1.084-.972.18-.063.404-.046.597-.122h11.278c.38 0 .797-.031 1.116.044.345.081.644.271.885.464.707.567.675 1.452.675 2.721v5.628c0 .729.021 1.444-.199 1.934-.229.507-.713.872-1.261 1.063-.403.14-1.032.076-1.548.076h-4.224l-.564.033zm-4.698-7.197a34.17 34.17 0 0 0-.31.065 1.469 1.469 0 0 0-.807.785c-.363.9.454 1.997 1.382 1.836.53-.093.903-.358 1.105-.774.494-1.014-.378-1.93-1.37-1.912zm4.422 0-.31.065a1.453 1.453 0 0 0-.818.818c-.352.875.478 1.96 1.393 1.803.577-.101.988-.419 1.161-.918.345-.999-.482-1.785-1.426-1.768zm5.827 1.824c.377-1.028-.431-1.841-1.403-1.824l-.332.077c-.385.16-.708.476-.83.896-.259.893.557 1.864 1.427 1.714.548-.095.967-.396 1.138-.863z"/></svg>