<svg xmlns="http://www.w3.org/2000/svg" viewBox="0 0 565.543 1010" xml:space="preserve"><path fill="#a68849" d="M460.525 0H104.981C47.291 0 0 47.272 0 104.981v799.966C0 962.657 47.29 1010 104.981 1010h355.544c57.746 0 105.018-47.344 105.018-105.053V104.981C565.543 47.272 518.27 0 460.525 0zM299.611 68.613c0 9.325-7.55 16.928-16.75 16.928-9.469 0-16.911-7.603-16.911-16.928 0-9.182 7.442-16.786 16.91-16.786 9.2 0 16.75 7.604 16.75 16.786zM347.42 939.88c0 7.101-5.828 12.84-12.93 12.84H231.07c-7.138 0-12.966-5.739-12.966-12.84v-6.492c0-7.065 5.828-12.912 12.966-12.912h103.42c7.102 0 12.93 5.847 12.93 12.912v6.492zM510.02 864.92h-454.5V144.973h454.5V864.92z"/></svg>