<svg xmlns="http://www.w3.org/2000/svg" viewBox="0 0 64 64" xml:space="preserve" style="fill-rule:evenodd;clip-rule:evenodd;stroke-linejoin:round;stroke-miterlimit:2"><path d="m29.16 39.012 23.406 23.405c.39.39.924.601 1.475.582l5.829-.2a1.991 1.991 0 0 0 1.892-1.643l1.208-6.837a1.99 1.99 0 0 0-1.876-2.335l-3.983-.168-.019-3.762a1.992 1.992 0 0 0-2.021-1.98l-3.516.053.015-3.576a1.991 1.991 0 0 0-2.023-1.998l-3.527.058-.018-3.647a1.995 1.995 0 0 0-.584-1.398l-6.406-6.406c3.341-7.341 1.996-16.3-4.039-22.335-7.768-7.767-20.38-7.767-28.148 0-7.767 7.768-7.767 20.38 0 28.148 6.035 6.035 14.994 7.38 22.335 4.039Zm7.767-6.308a20.077 20.077 0 0 1-4.223 4.223l22.065 22.064 3.354-.115.531-3.01-3.606-.153a1.989 1.989 0 0 1-1.906-1.978l-.02-3.65-3.537.052a1.99 1.99 0 0 1-2.02-1.999l.016-3.571-3.507.057a1.989 1.989 0 0 1-2.023-1.98l-.026-4.841-5.098-5.099ZM9.748 9.748a5.972 5.972 0 0 0 0 8.444 5.974 5.974 0 0 0 8.444 0 5.974 5.974 0 0 0 0-8.444 5.972 5.972 0 0 0-8.444 0Z" fill="#a68849"/></svg>